Coordinates
version=1
nRows=13
nColumns=63
inDegrees=yes

Units are S.I. units (second, meters, Newtons, ...)
If the header above contains a line with 'inDegrees', this indicates whether rotational values are in degrees (yes) or radians (no).

endheader
time	pelvis_tilt	pelvis_list	pelvis_rotation	pelvis_tx	pelvis_ty	pelvis_tz	hip_flexion_r	hip_adduction_r	hip_rotation_r	knee_angle_r	knee_angle_r_beta	ankle_angle_r	subtalar_angle_r	mtp_angle_r	hip_flexion_l	hip_adduction_l	hip_rotation_l	knee_angle_l	knee_angle_l_beta	ankle_angle_l	subtalar_angle_l	mtp_angle_l	L5_S1_Flex_Ext	L5_S1_Lat_Bending	L5_S1_axial_rotation	L4_L5_Flex_Ext	L4_L5_Lat_Bending	L4_L5_axial_rotation	L3_L4_Flex_Ext	L3_L4_Lat_Bending	L3_L4_axial_rotation	L2_L3_Flex_Ext	L2_L3_Lat_Bending	L2_L3_axial_rotation	L1_L2_Flex_Ext	L1_L2_Lat_Bending	L1_L2_axial_rotation	L1_T12_Flex_Ext	L1_T12_Lat_Bending	L1_T12_axial_rotation	Abs_r3	Abs_r2	Abs_r1	Abs_t1	Abs_t2	neck_flexion	neck_bending	neck_rotation	arm_flex_r	arm_add_r	arm_rot_r	elbow_flex_r	pro_sup_r	wrist_flex_r	wrist_dev_r	arm_flex_l	arm_add_l	arm_rot_l	elbow_flex_l	pro_sup_l	wrist_flex_l	wrist_dev_l
0.000000	3.744158	-5.216024	89.979735	0.159279	0.669402	0.548213	9.878408	1.201201	-19.128014	17.978460	0.313783	42.325832	17.531692	0.000000	-0.713713	-1.945205	-4.108283	0.625097	0.010910	36.489128	15.348031	0.000000	-0.018341	0.599356	-0.747662	-0.034062	0.797144	-0.794391	-0.030133	1.457275	-0.794391	-0.020962	1.457275	-0.654205	-0.017032	1.222207	-0.607476	-0.010480	0.928403	-0.560747	-0.131011	6.780038	-4.158274	0.000000	0.000000	22.996172	-2.300109	-1.731931	4.370839	-11.106430	38.041700	45.553461	79.856925	15.694201	3.261426	14.208444	-9.291230	71.409181	44.398761	86.330730	-0.814135	-10.142115
0.016949	3.513147	-5.247479	89.300938	0.159932	0.669414	0.546638	9.952061	0.989283	-18.666956	18.135230	0.316519	42.336897	17.151401	0.000000	-0.780798	-1.601265	-0.946006	0.566526	0.009888	35.535607	10.133124	0.000000	-0.000326	0.584129	-0.773223	-0.000605	0.776891	-0.821550	-0.000535	1.420251	-0.821550	-0.000372	1.420251	-0.676570	-0.000302	1.191156	-0.628244	-0.000186	0.904816	-0.579917	-0.002326	6.607783	-4.300435	0.000000	0.000000	23.073207	-2.209580	-0.879455	4.743237	-10.873389	39.245056	44.813722	79.051749	15.431745	3.577900	13.943735	-9.280759	71.433759	44.130295	86.453231	-1.579345	-9.880687
0.033898	3.360090	-5.281256	88.793385	0.160430	0.669447	0.545478	10.019233	0.851854	-18.324316	18.258365	0.318669	42.325670	16.848205	0.000000	-0.814273	-1.361739	1.747103	0.523978	0.009145	34.773651	5.826901	0.000000	0.013048	0.574989	-0.794276	0.024231	0.764735	-0.843918	0.021436	1.398027	-0.843918	0.014912	1.398027	-0.694991	0.012116	1.172517	-0.645349	0.007455	0.890657	-0.595707	0.093198	6.504386	-4.417522	0.000000	0.000000	23.141066	-2.124339	-0.217271	5.020403	-10.717397	40.152104	44.294626	78.232194	15.254654	3.887886	13.751718	-9.271276	71.433115	43.937190	86.553501	-2.266592	-9.753421
0.050847	3.276150	-5.316740	88.439694	0.160788	0.669495	0.544689	10.080665	0.779780	-18.090744	18.353029	0.320321	42.295474	16.615972	0.000000	-0.817897	-1.215275	4.000797	0.495817	0.008654	34.187853	2.360372	0.000000	0.022224	0.571192	-0.811097	0.041272	0.759685	-0.861791	0.036511	1.388796	-0.861791	0.025399	1.388796	-0.709710	0.020637	1.164775	-0.659017	0.012699	0.884776	-0.608323	0.158742	6.461437	-4.511080	0.000000	0.000000	23.201623	-2.043460	0.273979	5.212459	-10.629144	40.793435	43.970388	77.404136	15.150271	4.192601	13.625318	-9.261254	71.413992	43.808019	86.619143	-2.875398	-9.741801
0.067797	3.252490	-5.353318	88.222482	0.161022	0.669555	0.544230	10.137098	0.763927	-17.956890	18.424383	0.321566	42.249631	16.448569	0.000000	-0.795429	-1.150522	5.844827	0.480409	0.008385	33.762806	-0.335449	0.000000	0.027648	0.571995	-0.823966	0.051345	0.760754	-0.875464	0.045423	1.390750	-0.875464	0.031599	1.390750	-0.720970	0.025674	1.166413	-0.669472	0.015798	0.886021	-0.617975	0.197486	6.470526	-4.582652	0.000000	0.000000	23.256752	-1.966017	0.613656	5.329530	-10.599324	41.199641	43.815220	76.573451	15.105942	4.493264	13.557458	-9.249165	71.383134	43.731357	86.637760	-3.405285	-9.827309
0.084746	3.280271	-5.390378	88.124365	0.161145	0.669620	0.544059	10.189272	0.795161	-17.913406	18.477591	0.322495	42.191464	16.339863	0.000000	-0.750626	-1.156128	7.308944	0.476117	0.008310	33.483102	-2.329551	0.000000	0.029766	0.576655	-0.833160	0.055278	0.766952	-0.885232	0.048902	1.402080	-0.885232	0.034019	1.402080	-0.729015	0.027640	1.175916	-0.676942	0.017008	0.893239	-0.624870	0.212613	6.523242	-4.633784	0.000000	0.000000	23.308327	-1.891084	0.821117	5.381739	-10.618627	41.401312	43.803336	75.746015	15.109010	4.791092	13.541063	-9.233482	71.347284	43.695777	86.596954	-3.855776	-9.991427
0.101695	3.350655	-5.427304	88.127960	0.161174	0.669687	0.544135	10.237929	0.864348	-17.950940	18.517816	0.323197	42.124295	16.283722	0.000000	-0.687247	-1.220741	8.422898	0.481306	0.008400	33.333333	-3.690920	0.000000	0.029022	0.584429	-0.838956	0.053897	0.777290	-0.891391	0.047680	1.420980	-0.891391	0.033169	1.420980	-0.734086	0.026950	1.191767	-0.681652	0.016583	0.905280	-0.629217	0.207302	6.611175	-4.666021	0.000000	0.000000	23.358222	-1.817734	0.915722	5.379210	-10.677748	41.429038	43.908948	74.927703	15.146820	5.087305	13.569057	-9.212678	71.313187	43.689854	86.484326	-4.226393	-10.215640
0.118644	3.454806	-5.463484	88.215885	0.161122	0.669751	0.544416	10.283809	0.962354	-18.060143	18.550220	0.323762	42.051448	16.274014	0.000000	-0.609049	-1.333009	9.216442	0.494341	0.008628	33.298092	-4.488545	0.000000	0.025863	0.594572	-0.841632	0.048030	0.790780	-0.894234	0.042490	1.445642	-0.894234	0.029559	1.445642	-0.736428	0.024016	1.212451	-0.683826	0.014778	0.920992	-0.631224	0.184735	6.725915	-4.680906	0.000000	0.000000	23.408313	-1.745042	0.916830	5.332066	-10.767376	41.313411	44.106271	74.124392	15.206717	5.383120	13.634364	-9.185226	71.287585	43.702162	86.287481	-4.516660	-10.481431
0.135593	3.583885	-5.498305	88.370755	0.161005	0.669806	0.544861	10.327653	1.080046	-18.231665	18.579966	0.324282	41.976246	16.304604	0.000000	-0.519791	-1.481580	9.719325	0.513585	0.008964	33.361970	-4.791412	0.000000	0.020733	0.606341	-0.841467	0.038503	0.806434	-0.894058	0.034062	1.474257	-0.894058	0.023696	1.474257	-0.736283	0.019252	1.236451	-0.683692	0.011847	0.939222	-0.631100	0.148092	6.859050	-4.679986	0.000000	0.000000	23.460472	-1.672082	0.843799	5.250430	-10.878206	41.085021	44.369516	73.341958	15.276045	5.679755	13.729907	-9.149598	71.277223	43.721275	85.994019	-4.726098	-10.770281
0.152542	3.729054	-5.531152	88.575188	0.160839	0.669849	0.545427	10.370201	1.208288	-18.456158	18.612217	0.324844	41.902010	16.369361	0.000000	-0.423232	-1.655104	9.961300	0.537404	0.009379	33.509561	-4.668511	0.000000	0.014078	0.618993	-0.838737	0.026144	0.823261	-0.891158	0.023128	1.505019	-0.891158	0.016089	1.505019	-0.733895	0.013072	1.262250	-0.681474	0.008044	0.958820	-0.629053	0.100555	7.002172	-4.664804	0.000000	0.000000	23.516575	-1.597927	0.715989	5.144427	-11.000928	40.774460	44.672897	72.586276	15.342148	5.978429	13.848612	-9.104266	71.288844	43.735767	85.591544	-4.854229	-11.063675
0.169492	3.881476	-5.561413	88.811801	0.160637	0.669874	0.546074	10.412194	1.337948	-18.724270	18.652136	0.325541	41.832065	16.462152	0.000000	-0.323128	-1.842228	9.972117	0.564161	0.009846	33.725457	-4.188827	0.000000	0.006342	0.631784	-0.833721	0.011779	0.840273	-0.885828	0.010420	1.536120	-0.885828	0.007249	1.536120	-0.729506	0.005890	1.288334	-0.677398	0.003624	0.978634	-0.625291	0.045304	7.146869	-4.636905	0.000000	0.000000	23.578495	-1.521652	0.552759	5.024180	-11.126235	40.412317	44.990628	71.863222	15.392372	6.280359	13.983402	-9.047704	71.329192	43.734213	85.067657	-4.900578	-11.343094
0.186441	4.032887	-5.583160	89.043291	0.160443	0.669891	0.546691	10.448985	1.467378	-18.978196	18.691417	0.326227	41.786141	16.575155	0.000000	-0.231644	-2.031186	9.986355	0.593094	0.010351	33.943568	-3.710101	0.000000	-0.001382	0.644399	-0.828762	-0.002567	0.857051	-0.880560	-0.002270	1.566792	-0.880560	-0.001579	1.566792	-0.725167	-0.001283	1.314059	-0.673370	-0.000790	0.998175	-0.621572	-0.009872	7.289574	-4.609328	0.000000	0.000000	23.621187	-1.439159	0.382385	4.927488	-11.261285	40.137235	45.296473	71.193698	15.402582	6.551956	14.066440	-8.991605	71.324012	43.720325	84.074334	-4.751955	-11.563515
0.203390	4.181487	-5.608095	89.279183	0.160213	0.669908	0.547272	10.477598	1.582451	-19.319467	18.738166	0.327043	41.694761	16.690049	0.000000	-0.137852	-2.218916	9.660259	0.621792	0.010852	34.222218	-2.795354	0.000000	-0.008661	0.657060	-0.828498	-0.016085	0.873889	-0.880279	-0.014229	1.597575	-0.880279	-0.009899	1.597575	-0.724936	-0.008043	1.339876	-0.673155	-0.004949	1.017785	-0.621374	-0.061866	7.432789	-4.607858	0.000000	0.000000	23.684491	-1.392410	0.218714	4.830576	-11.348808	39.792514	45.521544	70.704414	15.441412	6.915511	14.122310	-8.907608	71.301608	43.638377	82.789432	-4.433406	-11.674373
